<svg width="25" height="24" viewBox="0 0 25 24" fill="none" xmlns="http://www.w3.org/2000/svg">
<path d="M11.2002 4H4.2002C3.66976 4 3.16105 4.21071 2.78598 4.58579C2.41091 4.96086 2.2002 5.46957 2.2002 6V20C2.2002 20.5304 2.41091 21.0391 2.78598 21.4142C3.16105 21.7893 3.66976 22 4.2002 22H18.2002C18.7306 22 19.2393 21.7893 19.6144 21.4142C19.9895 21.0391 20.2002 20.5304 20.2002 20V13" stroke="#0063E5" stroke-width="2" stroke-linecap="round" stroke-linejoin="round"/>
<path d="M18.7002 2.49998C19.098 2.10216 19.6376 1.87866 20.2002 1.87866C20.7628 1.87866 21.3024 2.10216 21.7002 2.49998C22.098 2.89781 22.3215 3.43737 22.3215 3.99998C22.3215 4.56259 22.098 5.10216 21.7002 5.49998L12.2002 15L8.2002 16L9.2002 12L18.7002 2.49998Z" stroke="#0063E5" stroke-width="2" stroke-linecap="round" stroke-linejoin="round"/>
</svg>
