<svg width="40" height="40" viewBox="0 0 40 40" fill="none" xmlns="http://www.w3.org/2000/svg">
<circle cx="20" cy="20" r="20" fill="#0063E5"/>
<g clip-path="url(#clip0_105_19309)">
<path fill-rule="evenodd" clip-rule="evenodd" d="M26.0102 13.9229H18.1086L22.4536 26.4528C22.8998 27.7465 22.6442 28.1587 21.3193 28.1587H14.5365C12.1633 28.0961 11.7719 27.4752 11.1901 26.2912L10.0011 30.6728H26.4018C30.7817 30.6728 30.2549 27.4333 29.3669 24.601L26.0102 13.9229ZM12.961 26.7501H20.863L16.518 14.2202C16.1467 13.1509 16.3274 12.5144 17.6519 12.5144H24.4751C26.8482 12.5769 27.2396 13.1978 27.8216 14.3819L29.0106 10H12.5696C8.19483 10 8.71649 13.2395 9.60451 16.072L12.961 26.7501ZM11.6201 34.127V36.3637H11.1403C11.082 35.8839 10.9863 35.519 10.8532 35.2694C10.72 35.0197 10.5806 34.8438 10.4352 34.7415C10.3284 34.6646 10.2243 34.6134 10.1225 34.588C10.0207 34.5625 9.93362 34.5496 9.86085 34.5496C9.59438 34.556 9.37262 34.6489 9.19574 34.8279C9.01886 35.007 8.93042 35.2537 8.93042 35.5671C8.93042 35.8614 8.98983 36.0791 9.10864 36.2199C9.22745 36.3607 9.35696 36.4598 9.49754 36.5174C9.55083 36.5431 9.60432 36.5653 9.65742 36.5846C9.71071 36.604 9.76152 36.6199 9.81004 36.6326C9.84385 36.6453 9.87785 36.6567 9.91185 36.6662C10.419 36.8148 10.8983 37.0517 11.3294 37.3669C11.7269 37.658 11.9255 38.1587 11.9255 38.8689C11.9255 38.9265 11.9242 38.9857 11.9217 39.0467C11.9194 39.1062 11.9133 39.1655 11.9035 39.2243C11.8502 39.666 11.6927 40.0707 11.431 40.4385C11.1693 40.8064 10.7792 40.9905 10.2606 40.9905L10.1881 41C9.92636 40.9936 9.69486 40.9537 9.49372 40.88C9.29258 40.8064 9.12411 40.7247 8.98849 40.6354C8.92546 40.5903 8.86968 40.5474 8.82136 40.5057C8.77934 40.4699 8.73814 40.433 8.69777 40.3952L8.42157 40.8079H8V38.4562H8.47982C8.64944 39.3202 8.88687 39.8816 9.19211 40.1406C9.49735 40.4 9.82933 40.5329 10.1881 40.539H10.2461C10.4595 40.52 10.6545 40.4256 10.8312 40.256C11.0081 40.0864 11.0965 39.8449 11.0965 39.5313C11.0965 39.1921 11.002 38.9347 10.813 38.7585C10.6303 38.5865 10.4184 38.4514 10.1881 38.3601C10.1126 38.3289 10.0362 38.3001 9.95903 38.2737C9.88715 38.2492 9.81564 38.2236 9.74452 38.1969C9.69656 38.1777 9.64809 38.1601 9.59916 38.1438C9.55064 38.1279 9.49983 38.1103 9.44654 38.091C9.11227 37.9631 8.80436 37.7565 8.52338 37.4719C8.2424 37.1871 8.10181 36.7218 8.10181 36.0753C8.10181 35.4227 8.2764 34.9284 8.62518 34.5923C8.97397 34.2563 9.38351 34.0885 9.85359 34.0885H9.92636C10.1202 34.0885 10.3116 34.122 10.5005 34.1892C10.6897 34.2565 10.8713 34.3637 11.0457 34.5107L11.1983 34.1266L11.6201 34.127ZM17.0276 34.2805V36.7667H16.5916C16.5675 36.2549 16.4922 35.8612 16.3664 35.5862C16.2403 35.3111 16.1045 35.1095 15.9593 34.9816C15.8382 34.8726 15.7244 34.8039 15.6176 34.7751C15.511 34.7463 15.431 34.732 15.3777 34.732H15.3049V39.9537C15.3049 40.1136 15.3366 40.2209 15.3995 40.2753C15.4625 40.3295 15.5546 40.3567 15.6757 40.3567H16.0174V40.8077H13.4003V40.3567H13.742C13.8681 40.3567 13.9613 40.3295 14.0219 40.2753C14.0824 40.2209 14.1128 40.1136 14.1128 39.9537V34.732H14.0473C13.9795 34.732 13.8983 34.7463 13.8037 34.7751C13.7092 34.8041 13.6135 34.8567 13.5166 34.9335C13.3568 35.0551 13.2078 35.2583 13.0697 35.5429C12.9316 35.8279 12.8504 36.2356 12.8261 36.7667H12.39V34.2805H17.0276ZM16.9106 40.3567C17.1335 40.3567 17.3019 40.2848 17.4158 40.1406C17.5267 40.0019 17.614 39.8444 17.6738 39.6751C17.6884 39.6368 17.7006 39.6016 17.7101 39.5696L17.7392 39.4737C17.7439 39.461 17.7476 39.4497 17.7501 39.4401C17.7525 39.4304 17.7562 39.4193 17.7609 39.4066L17.7682 39.3968L17.7827 39.3585C17.7875 39.3458 17.7925 39.3297 17.7972 39.3106C17.802 39.2916 17.8081 39.2723 17.8156 39.2531C17.8228 39.2338 17.8288 39.2147 17.8337 39.1955C17.8337 39.1891 17.8351 39.1827 17.8374 39.1762C17.8402 39.1693 17.8438 39.1628 17.8482 39.1569C17.853 39.1442 17.8566 39.1313 17.8591 39.1186C17.8616 39.1059 17.8652 39.093 17.87 39.0803L19.4111 34.0889H19.9272L21.6572 39.4256C21.7543 39.7073 21.8658 39.9329 21.9919 40.1025C22.1176 40.2721 22.2824 40.3567 22.4862 40.3567H22.5007V40.8077H19.8546V40.3567H20.2401C20.3039 40.3501 20.3651 40.327 20.4181 40.2896C20.4741 40.2513 20.5018 40.1871 20.5018 40.0975C20.5018 40.0719 20.498 40.0336 20.4909 39.9823C20.4838 39.9311 20.4607 39.8513 20.4219 39.7424L20.1966 39.0608H18.3575L18.2194 39.5504L18.2012 39.6223C18.1945 39.6493 18.1884 39.6765 18.1831 39.7039C18.1783 39.7422 18.1733 39.779 18.1686 39.8143C18.1638 39.8497 18.1613 39.8799 18.1613 39.9055C18.1613 40.0526 18.1915 40.1567 18.2522 40.2173C18.3128 40.2783 18.377 40.3182 18.4448 40.3372C18.4885 40.35 18.5284 40.3565 18.5647 40.3565H18.8881V40.8076H16.9107L16.9106 40.3567ZM20.0437 38.6098L19.2585 36.1907L18.5025 38.6098H20.0437ZM27.1085 34.2805V36.5844H26.694C26.6165 35.9445 26.4822 35.4998 26.2908 35.2501C26.0994 35.0005 25.8971 34.847 25.6838 34.7894C25.6121 34.764 25.5377 34.7479 25.4622 34.7415C25.3909 34.7353 25.3193 34.7321 25.2477 34.732H24.9203C24.9029 34.7316 24.8856 34.7348 24.8695 34.7415C24.8004 34.7484 24.736 34.7808 24.6878 34.8327C24.6345 34.8871 24.6076 34.9911 24.6076 35.1445V37.1027H24.76C24.9558 37.0985 25.1478 37.0459 25.3201 36.9492C25.4895 36.8533 25.5745 36.6068 25.5745 36.21V36.0084H25.9961V38.6193H25.5745V38.3601V38.3361V38.3123C25.5648 38.1202 25.5006 37.9458 25.3816 37.7889C25.263 37.6322 25.1092 37.5538 24.9201 37.5538H24.6074V39.9535C24.6074 40.1134 24.6391 40.2207 24.7018 40.2751C24.7648 40.3293 24.8569 40.3565 24.9782 40.3565H25.3199V40.8076H22.7028V40.3565H23.0446C23.1706 40.3565 23.2638 40.3293 23.3244 40.2751C23.3851 40.2207 23.4155 40.1134 23.4155 39.9535V35.1347C23.4155 34.9747 23.3853 34.8676 23.3244 34.8132C23.264 34.759 23.1706 34.7318 23.0446 34.7318H22.7028V34.2805H27.1085ZM32 34.2805V36.5844H31.5859C31.5083 35.9445 31.3737 35.4998 31.1823 35.2501C30.9909 35.0005 30.7886 34.847 30.5752 34.7894C30.5028 34.7637 30.4285 34.7478 30.3537 34.7415C30.2788 34.7351 30.207 34.732 30.1392 34.732H29.8118C29.7944 34.7316 29.7771 34.7348 29.761 34.7415C29.6919 34.7485 29.6275 34.7808 29.5793 34.8327C29.526 34.8871 29.4995 34.9911 29.4995 35.1445V37.1027H29.6519C29.8475 37.0985 30.0394 37.0459 30.2115 36.9492C30.3814 36.8533 30.466 36.6068 30.466 36.21V36.0084H30.8875V38.6193H30.466V38.3601V38.3361V38.3123C30.4562 38.1202 30.3921 37.9458 30.2734 37.7889C30.1544 37.6322 30.0007 37.5538 29.8116 37.5538H29.4993V39.9535C29.4993 40.1134 29.5306 40.2207 29.5936 40.2751C29.6567 40.3293 29.7487 40.3565 29.8696 40.3565H30.2114V40.8076H27.5947V40.3565H27.936C28.0621 40.3565 28.1553 40.3293 28.2158 40.2751C28.2766 40.2207 28.307 40.1134 28.307 39.9535V35.1347C28.307 34.9747 28.2768 34.8676 28.2158 34.8132C28.1555 34.759 28.0621 34.7318 27.936 34.7318H27.5947V34.2805H32Z" fill="white"/>
</g>
<defs>
<clipPath id="clip0_105_19309">
<rect width="26" height="30" fill="white" transform="translate(7 2)"/>
</clipPath>
</defs>
</svg>
