<svg width="25" height="24" viewBox="0 0 25 24" fill="none" xmlns="http://www.w3.org/2000/svg">
<path d="M3.2002 6H5.2002H21.2002" stroke="#A30D11" stroke-width="2" stroke-linecap="round" stroke-linejoin="round"/>
<path d="M8.2002 6V4C8.2002 3.46957 8.41091 2.96086 8.78598 2.58579C9.16105 2.21071 9.66976 2 10.2002 2H14.2002C14.7306 2 15.2393 2.21071 15.6144 2.58579C15.9895 2.96086 16.2002 3.46957 16.2002 4V6M19.2002 6V20C19.2002 20.5304 18.9895 21.0391 18.6144 21.4142C18.2393 21.7893 17.7306 22 17.2002 22H7.2002C6.66976 22 6.16105 21.7893 5.78598 21.4142C5.41091 21.0391 5.2002 20.5304 5.2002 20V6H19.2002Z" stroke="#A30D11" stroke-width="2" stroke-linecap="round" stroke-linejoin="round"/>
<path d="M10.2002 11V17" stroke="#A30D11" stroke-width="2" stroke-linecap="round" stroke-linejoin="round"/>
<path d="M14.2002 11V17" stroke="#A30D11" stroke-width="2" stroke-linecap="round" stroke-linejoin="round"/>
</svg>
